Goon 2011 HDTVRip (480p) AC3-5.1 StoneBoyTony


Labeled an outcast by his brainy family, a bouncer overcomes long odds to lead a team of under performing misfits to semi-pro hockey glory, beating the crap out of everything that stands in his way.


Genres: Comedy | Sport 

Director: Michael Dowse

Writers: Jay Baruchel (screenplay), Evan Goldberg (screenplay)

Stars: Seann William Scott, Jay Baruchel and Alison Pill



General

Unique ID                        : 0
Complete name                    : Goon 2011 HDTVRip (480p) AC3-5.1 StoneBoyTony.mkv
Format                           : Matroska
Format version                   : Version 2
File size                        : 1.34 GiB
Duration                         : 1h 31mn
Overall bit rate                 : 2 093 Kbps
Movie name                       : Goon 2011 HDTVRip (480p) AC3-5.1 StoneBoyTony
Encoded date                     : UTC 2012-02-26 13:50:16
Writing application              : mkvmerge v5.3.0 (\'I could have danced\') built on Feb  9 2012 10:38:07
Writing library                  : libebml v1.2.3 + libmatroska v1.3.0

Video

ID                               : 1
Format                           : AVC
Format/Info                      : Advanced Video Codec
Format profile                   : High@L4.1
Format settings, CABAC           : Yes
Format settings, ReFrames        : 4 frames
Muxing mode                      : Header stripping
Codec ID                         : V_MPEG4/ISO/AVC
Duration                         : 1h 31mn
Bit rate                         : 1 668 Kbps
Width                            : 854 pixels
Height                           : 480 pixels
Display aspect ratio             : 16:9
Frame rate                       : 23.976 fps
Color space                      : YUV
Chroma subsampling               : 4:2:0
Bit depth                        : 8 bits
Scan type                        : Progressive
Bits/(Pixel*Frame)               : 0.170
Stream size                      : 1.07 GiB (80%)
Title                            : Encoded by StoneBoyTony
Writing library                  : x264 core 120 r2164 da19765
Language                         : English
Default                          : No
Forced                           : No

Audio

ID                               : 2
Format                           : AC-3
Format/Info                      : Audio Coding 3
Mode extension                   : CM (complete main)
Muxing mode                      : Header stripping
Codec ID                         : A_AC3
Duration                         : 1h 31mn
Bit rate mode                    : Constant
Bit rate                         : 384 Kbps
Channel(s)                       : 6 channels
Channel positions                : Front: L C R, Side: L R, LFE
Sampling rate                    : 48.0 KHz
Bit depth                        : 16 bits
Compression mode                 : Lossy
Stream size                      : 252 MiB (18%)
Title                            : Encoded by StoneBoyTony
Language                         : English
Default                          : Yes
Forced                           : No



Screenshots

 
http://img525.imageshack.us/img525/4656/goon2011hdtvrip480p2012.jpg 
http://img717.imageshack.us/img717/4656/goon2011hdtvrip480p2012.jpg 
http://img850.imageshack.us/img850/4656/goon2011hdtvrip480p2012.jpg 
http://img407.imageshack.us/img407/4656/goon2011hdtvrip480p2012.jpg 
http://img525.imageshack.us/img525/9348/goon2011hdtvrip480p2012q.jpg 
http://img818.imageshack.us/img818/4656/goon2011hdtvrip480p2012.jpg 
http://img808.imageshack.us/img808/4656/goon2011hdtvrip480p2012.jpg 
http://img196.imageshack.us/img196/4656/goon2011hdtvrip480p2012.jpg 
http://img515.imageshack.us/img515/4656/goon2011hdtvrip480p2012.jpg 
http://img11.imageshack.us/img11/4656/goon2011hdtvrip480p2012.jpg 
http://img715.imageshack.us/img715/4656/goon2011hdtvrip480p2012.jpg 
http://img217.imageshack.us/img217/4656/goon2011hdtvrip480p2012.jpg



Source: SiC [thanks!]


BiG THANKS to T00NG0D, IMAGINE, ELEKTRI4KA, ILLUMINATI, DTRG, P76, ETRG, NOGRP, INFERNO, INSPiRAL, SiC, PA, YeFsTe, MrRep and everyone in the struggle

Sample is Included

Have problems to play the file on your PC use VLC Media Player it\'s free:
 
http://www.videolan.org/vlc/

Want to convert in DVD use ConvertXtoDVD
 
http://www.vso-software.fr/products/convert_x_to_dvd/

Want to convert in any file (xbox,psp,PS3 etc) use Aiseesoft Total Media Converter:
 
http://www.aiseesoft.com/total-media-converter.html

I did my best the rest is yours :D


Want to visit my other uploads?
  
http://www.kat.ph/user/StoneBoyTony/uploads/  
http://thepiratebay.org/user/StoneBoyTony/  
http://www. demonoid. me/files/?uid=3160987&seeded=2/

Enjoy and don\'t forget to SeeD	